FFmpeg version SVN-r25716, Copyright (c) 2000-2010 the FFmpeg developers  built on Nov 10 2010 12:23:18 with gcc 4.1.2 20080704 (Red Hat 4.1.2-48)  configuration: --enable-libmp3lame --enable-shared --disable-mmx --arch=x86_64  libavutil     50.33. 0 / 50.33. 0  libavcore      0.12. 1 /  0.12. 1  libavcodec    52.94. 4 / 52.94. 4  libavformat   52.84. 0 / 52.84. 0  libavdevice   52. 2. 2 / 52. 2. 2  libavfilter    1.59. 0 /  1.59. 0  libswscale     0.12. 0 /  0.12. 0Input #0, avi, from '/RAID10/data/converted_video_files/47505.avi':  Duration: 00:00:01.43, start: 0.000000, bitrate: 283004 kb/s    Stream #0.0: Video: msvideo1, rgb555le, 1024x1024, 30 tbr, 30 tbn, 30 tbc[buffer @ 0xf0e0b40] w:1024 h:1024 pixfmt:rgb555le[ffsink @ 0xf11aec0] auto-inserting filter 'auto-inserted scaler 0' between the filter 'src' and the filter 'out'[scale @ 0xf11b1e0] w:1024 h:1024 fmt:rgb555le -> w:1024 h:1024 fmt:yuv420p flags:0x4Output #0, flv, to '/RAID10/data/converted_video_files/47505.flv':  Metadata:    encoder         : Lavf52.84.0    Stream #0.0: Video: flv, yuv420p, 1024x1024, q=2-31, 600 kb/s, 1k tbn, 24 tbcStream mapping:  Stream #0.0 -> #0.0Press [q] to stop encodingframe=    8 fps=  0 q=12.5 size=     939kB time=0.33 bitrate=23110.4kbits/s dup=0 drop=1    frame=   16 fps= 14 q=31.0 size=     979kB time=0.67 bitrate=12019.4kbits/s dup=0 drop=3    frame=   25 fps= 15 q=24.8 size=    1014kB time=1.04 bitrate=7975.1kbits/s dup=0 drop=6    frame=   34 fps= 15 q=31.0 size=    1024kB time=1.42 bitrate=5919.2kbits/s dup=0 drop=8    frame=   35 fps= 15 q=31.0 Lsize=    1025kB time=1.46 bitrate=5758.5kbits/s dup=0 drop=8    video:1024kB audio:0kB global headers:0kB muxing overhead 0.073423%